<mxfile host="app.diagrams.net" modified="2024-06-10T11:24:22.791Z" agent="Mozilla/5.0 (Windows NT 10.0; Win64; x64) AppleWebKit/537.36 (KHTML, like Gecko) Chrome/120.0.0.0 Safari/537.36 Edg/120.0.0.0" etag="Qb10dFUTsyZcZMEwLjf6" version="24.4.4" type="device">
  <diagram name="第 1 页" id="I-ydNF_2Z6Ge9b4kBBjB">
    <mxGraphModel dx="1208" dy="687" grid="1" gridSize="10" guides="1" tooltips="1" connect="1" arrows="1" fold="1" page="1" pageScale="1" pageWidth="827" pageHeight="1169" math="0" shadow="0">
      <root>
        <mxCell id="0" />
        <mxCell id="1" parent="0" />
        <mxCell id="8sraYeCV05nGxwhAqenC-1" value="&lt;font style=&quot;font-size: 18px;&quot;&gt;报修人个人中心&lt;/font&gt;" style="rounded=0;whiteSpace=wrap;html=1;" vertex="1" parent="1">
          <mxGeometry x="150" y="50" width="220" height="40" as="geometry" />
        </mxCell>
        <mxCell id="8sraYeCV05nGxwhAqenC-2" value="报修发布" style="rounded=0;whiteSpace=wrap;html=1;" vertex="1" parent="1">
          <mxGeometry x="150" y="90" width="220" height="40" as="geometry" />
        </mxCell>
        <mxCell id="8sraYeCV05nGxwhAqenC-3" value="任务状态" style="rounded=0;whiteSpace=wrap;html=1;" vertex="1" parent="1">
          <mxGeometry x="150" y="130" width="220" height="40" as="geometry" />
        </mxCell>
        <mxCell id="8sraYeCV05nGxwhAqenC-4" value="任务反馈" style="rounded=0;whiteSpace=wrap;html=1;" vertex="1" parent="1">
          <mxGeometry x="150" y="170" width="220" height="40" as="geometry" />
        </mxCell>
        <mxCell id="8sraYeCV05nGxwhAqenC-5" value="" style="rounded=0;whiteSpace=wrap;html=1;" vertex="1" parent="1">
          <mxGeometry x="150" y="210" width="220" height="40" as="geometry" />
        </mxCell>
        <mxCell id="8sraYeCV05nGxwhAqenC-6" value="&lt;font style=&quot;font-size: 18px;&quot;&gt;报修发布&lt;/font&gt;" style="rounded=0;whiteSpace=wrap;html=1;" vertex="1" parent="1">
          <mxGeometry x="420" y="50" width="220" height="40" as="geometry" />
        </mxCell>
        <mxCell id="8sraYeCV05nGxwhAqenC-7" value="问题设备" style="rounded=0;whiteSpace=wrap;html=1;" vertex="1" parent="1">
          <mxGeometry x="420" y="90" width="220" height="40" as="geometry" />
        </mxCell>
        <mxCell id="8sraYeCV05nGxwhAqenC-8" value="设备具体位置" style="rounded=0;whiteSpace=wrap;html=1;" vertex="1" parent="1">
          <mxGeometry x="420" y="130" width="220" height="40" as="geometry" />
        </mxCell>
        <mxCell id="8sraYeCV05nGxwhAqenC-9" value="问题描述" style="rounded=0;whiteSpace=wrap;html=1;" vertex="1" parent="1">
          <mxGeometry x="420" y="170" width="220" height="40" as="geometry" />
        </mxCell>
        <mxCell id="8sraYeCV05nGxwhAqenC-10" value="具体展示图片视频上传" style="rounded=0;whiteSpace=wrap;html=1;" vertex="1" parent="1">
          <mxGeometry x="420" y="210" width="220" height="40" as="geometry" />
        </mxCell>
        <mxCell id="8sraYeCV05nGxwhAqenC-11" value="&lt;font style=&quot;font-size: 18px;&quot;&gt;任务状态&lt;/font&gt;" style="rounded=0;whiteSpace=wrap;html=1;" vertex="1" parent="1">
          <mxGeometry x="660" y="50" width="220" height="40" as="geometry" />
        </mxCell>
        <mxCell id="8sraYeCV05nGxwhAqenC-12" value="报修描述" style="rounded=0;whiteSpace=wrap;html=1;" vertex="1" parent="1">
          <mxGeometry x="660" y="90" width="220" height="40" as="geometry" />
        </mxCell>
        <mxCell id="8sraYeCV05nGxwhAqenC-13" value="接单情况" style="rounded=0;whiteSpace=wrap;html=1;" vertex="1" parent="1">
          <mxGeometry x="660" y="130" width="220" height="40" as="geometry" />
        </mxCell>
        <mxCell id="8sraYeCV05nGxwhAqenC-14" value="维修进度" style="rounded=0;whiteSpace=wrap;html=1;" vertex="1" parent="1">
          <mxGeometry x="660" y="170" width="220" height="40" as="geometry" />
        </mxCell>
        <mxCell id="8sraYeCV05nGxwhAqenC-15" value="是否反馈" style="rounded=0;whiteSpace=wrap;html=1;" vertex="1" parent="1">
          <mxGeometry x="660" y="210" width="220" height="40" as="geometry" />
        </mxCell>
        <mxCell id="8sraYeCV05nGxwhAqenC-16" value="&lt;font style=&quot;font-size: 18px;&quot;&gt;任务反馈&lt;/font&gt;" style="rounded=0;whiteSpace=wrap;html=1;" vertex="1" parent="1">
          <mxGeometry x="900" y="50" width="220" height="40" as="geometry" />
        </mxCell>
        <mxCell id="8sraYeCV05nGxwhAqenC-17" value="报修描述" style="rounded=0;whiteSpace=wrap;html=1;" vertex="1" parent="1">
          <mxGeometry x="900" y="90" width="220" height="40" as="geometry" />
        </mxCell>
        <mxCell id="8sraYeCV05nGxwhAqenC-18" value="接单师傅" style="rounded=0;whiteSpace=wrap;html=1;" vertex="1" parent="1">
          <mxGeometry x="900" y="130" width="220" height="40" as="geometry" />
        </mxCell>
        <mxCell id="8sraYeCV05nGxwhAqenC-19" value="问题是否解决" style="rounded=0;whiteSpace=wrap;html=1;" vertex="1" parent="1">
          <mxGeometry x="900" y="170" width="220" height="40" as="geometry" />
        </mxCell>
        <mxCell id="8sraYeCV05nGxwhAqenC-20" value="维修工作评价" style="rounded=0;whiteSpace=wrap;html=1;" vertex="1" parent="1">
          <mxGeometry x="900" y="210" width="220" height="40" as="geometry" />
        </mxCell>
        <mxCell id="8sraYeCV05nGxwhAqenC-21" value="&lt;font style=&quot;font-size: 18px;&quot;&gt;维修师傅个人中心&lt;/font&gt;" style="rounded=0;whiteSpace=wrap;html=1;" vertex="1" parent="1">
          <mxGeometry x="150" y="290" width="220" height="40" as="geometry" />
        </mxCell>
        <mxCell id="8sraYeCV05nGxwhAqenC-22" value="派单任务" style="rounded=0;whiteSpace=wrap;html=1;" vertex="1" parent="1">
          <mxGeometry x="150" y="330" width="220" height="40" as="geometry" />
        </mxCell>
        <mxCell id="8sraYeCV05nGxwhAqenC-23" value="完成记录" style="rounded=0;whiteSpace=wrap;html=1;" vertex="1" parent="1">
          <mxGeometry x="150" y="370" width="220" height="40" as="geometry" />
        </mxCell>
        <mxCell id="8sraYeCV05nGxwhAqenC-24" value="" style="rounded=0;whiteSpace=wrap;html=1;" vertex="1" parent="1">
          <mxGeometry x="150" y="410" width="220" height="40" as="geometry" />
        </mxCell>
        <mxCell id="8sraYeCV05nGxwhAqenC-25" value="" style="rounded=0;whiteSpace=wrap;html=1;" vertex="1" parent="1">
          <mxGeometry x="150" y="450" width="220" height="40" as="geometry" />
        </mxCell>
        <mxCell id="8sraYeCV05nGxwhAqenC-26" value="&lt;font style=&quot;font-size: 18px;&quot;&gt;派单任务&lt;/font&gt;" style="rounded=0;whiteSpace=wrap;html=1;" vertex="1" parent="1">
          <mxGeometry x="420" y="290" width="220" height="40" as="geometry" />
        </mxCell>
        <mxCell id="8sraYeCV05nGxwhAqenC-27" value="报修描述" style="rounded=0;whiteSpace=wrap;html=1;" vertex="1" parent="1">
          <mxGeometry x="420" y="330" width="220" height="40" as="geometry" />
        </mxCell>
        <mxCell id="8sraYeCV05nGxwhAqenC-28" value="紧急程度" style="rounded=0;whiteSpace=wrap;html=1;" vertex="1" parent="1">
          <mxGeometry x="420" y="370" width="220" height="40" as="geometry" />
        </mxCell>
        <mxCell id="8sraYeCV05nGxwhAqenC-29" value="进度更新" style="rounded=0;whiteSpace=wrap;html=1;" vertex="1" parent="1">
          <mxGeometry x="420" y="410" width="220" height="40" as="geometry" />
        </mxCell>
        <mxCell id="8sraYeCV05nGxwhAqenC-30" value="" style="rounded=0;whiteSpace=wrap;html=1;" vertex="1" parent="1">
          <mxGeometry x="420" y="450" width="220" height="40" as="geometry" />
        </mxCell>
        <mxCell id="8sraYeCV05nGxwhAqenC-31" value="&lt;font style=&quot;font-size: 18px;&quot;&gt;完成记录&lt;/font&gt;" style="rounded=0;whiteSpace=wrap;html=1;" vertex="1" parent="1">
          <mxGeometry x="660" y="290" width="220" height="40" as="geometry" />
        </mxCell>
        <mxCell id="8sraYeCV05nGxwhAqenC-32" value="报修描述" style="rounded=0;whiteSpace=wrap;html=1;" vertex="1" parent="1">
          <mxGeometry x="660" y="330" width="220" height="40" as="geometry" />
        </mxCell>
        <mxCell id="8sraYeCV05nGxwhAqenC-33" value="完成日期" style="rounded=0;whiteSpace=wrap;html=1;" vertex="1" parent="1">
          <mxGeometry x="660" y="370" width="220" height="40" as="geometry" />
        </mxCell>
        <mxCell id="8sraYeCV05nGxwhAqenC-34" value="问题解决反馈" style="rounded=0;whiteSpace=wrap;html=1;" vertex="1" parent="1">
          <mxGeometry x="660" y="410" width="220" height="40" as="geometry" />
        </mxCell>
        <mxCell id="8sraYeCV05nGxwhAqenC-35" value="" style="rounded=0;whiteSpace=wrap;html=1;" vertex="1" parent="1">
          <mxGeometry x="660" y="450" width="220" height="40" as="geometry" />
        </mxCell>
        <mxCell id="8sraYeCV05nGxwhAqenC-36" value="&lt;font style=&quot;font-size: 18px;&quot;&gt;管理员个人中心&lt;/font&gt;" style="rounded=0;whiteSpace=wrap;html=1;" vertex="1" parent="1">
          <mxGeometry x="150" y="540" width="220" height="40" as="geometry" />
        </mxCell>
        <mxCell id="8sraYeCV05nGxwhAqenC-37" value="任务委派" style="rounded=0;whiteSpace=wrap;html=1;" vertex="1" parent="1">
          <mxGeometry x="150" y="580" width="220" height="40" as="geometry" />
        </mxCell>
        <mxCell id="8sraYeCV05nGxwhAqenC-38" value="任务记录" style="rounded=0;whiteSpace=wrap;html=1;" vertex="1" parent="1">
          <mxGeometry x="150" y="620" width="220" height="40" as="geometry" />
        </mxCell>
        <mxCell id="8sraYeCV05nGxwhAqenC-39" value="数据统计" style="rounded=0;whiteSpace=wrap;html=1;" vertex="1" parent="1">
          <mxGeometry x="150" y="660" width="220" height="40" as="geometry" />
        </mxCell>
        <mxCell id="8sraYeCV05nGxwhAqenC-40" value="" style="rounded=0;whiteSpace=wrap;html=1;" vertex="1" parent="1">
          <mxGeometry x="150" y="700" width="220" height="40" as="geometry" />
        </mxCell>
        <mxCell id="8sraYeCV05nGxwhAqenC-41" value="&lt;font style=&quot;font-size: 18px;&quot;&gt;任务委派&lt;/font&gt;" style="rounded=0;whiteSpace=wrap;html=1;" vertex="1" parent="1">
          <mxGeometry x="420" y="540" width="220" height="40" as="geometry" />
        </mxCell>
        <mxCell id="8sraYeCV05nGxwhAqenC-42" value="待委派报修情况" style="rounded=0;whiteSpace=wrap;html=1;" vertex="1" parent="1">
          <mxGeometry x="420" y="580" width="220" height="40" as="geometry" />
        </mxCell>
        <mxCell id="8sraYeCV05nGxwhAqenC-43" value="紧急程度" style="rounded=0;whiteSpace=wrap;html=1;" vertex="1" parent="1">
          <mxGeometry x="420" y="620" width="220" height="40" as="geometry" />
        </mxCell>
        <mxCell id="8sraYeCV05nGxwhAqenC-44" value="委派师傅" style="rounded=0;whiteSpace=wrap;html=1;" vertex="1" parent="1">
          <mxGeometry x="420" y="660" width="220" height="40" as="geometry" />
        </mxCell>
        <mxCell id="8sraYeCV05nGxwhAqenC-45" value="" style="rounded=0;whiteSpace=wrap;html=1;" vertex="1" parent="1">
          <mxGeometry x="420" y="700" width="220" height="40" as="geometry" />
        </mxCell>
        <mxCell id="8sraYeCV05nGxwhAqenC-46" value="&lt;font style=&quot;font-size: 18px;&quot;&gt;任务记录&lt;/font&gt;" style="rounded=0;whiteSpace=wrap;html=1;" vertex="1" parent="1">
          <mxGeometry x="660" y="540" width="220" height="40" as="geometry" />
        </mxCell>
        <mxCell id="8sraYeCV05nGxwhAqenC-47" value="报修描述" style="rounded=0;whiteSpace=wrap;html=1;" vertex="1" parent="1">
          <mxGeometry x="660" y="580" width="220" height="40" as="geometry" />
        </mxCell>
        <mxCell id="8sraYeCV05nGxwhAqenC-48" value="委派师傅" style="rounded=0;whiteSpace=wrap;html=1;" vertex="1" parent="1">
          <mxGeometry x="660" y="620" width="220" height="40" as="geometry" />
        </mxCell>
        <mxCell id="8sraYeCV05nGxwhAqenC-49" value="完成日期" style="rounded=0;whiteSpace=wrap;html=1;" vertex="1" parent="1">
          <mxGeometry x="660" y="660" width="220" height="40" as="geometry" />
        </mxCell>
        <mxCell id="8sraYeCV05nGxwhAqenC-50" value="问题反馈" style="rounded=0;whiteSpace=wrap;html=1;" vertex="1" parent="1">
          <mxGeometry x="660" y="700" width="220" height="40" as="geometry" />
        </mxCell>
        <mxCell id="8sraYeCV05nGxwhAqenC-53" value="" style="edgeStyle=orthogonalEdgeStyle;rounded=0;orthogonalLoop=1;jettySize=auto;html=1;" edge="1" parent="1" source="8sraYeCV05nGxwhAqenC-51" target="8sraYeCV05nGxwhAqenC-52">
          <mxGeometry relative="1" as="geometry" />
        </mxCell>
        <mxCell id="8sraYeCV05nGxwhAqenC-73" value="" style="edgeStyle=orthogonalEdgeStyle;rounded=0;orthogonalLoop=1;jettySize=auto;html=1;entryX=0;entryY=0.5;entryDx=0;entryDy=0;" edge="1" parent="1" source="8sraYeCV05nGxwhAqenC-51" target="8sraYeCV05nGxwhAqenC-70">
          <mxGeometry relative="1" as="geometry">
            <mxPoint x="630" y="935" as="targetPoint" />
          </mxGeometry>
        </mxCell>
        <mxCell id="8sraYeCV05nGxwhAqenC-51" value="报修人报修发布" style="rounded=0;whiteSpace=wrap;html=1;" vertex="1" parent="1">
          <mxGeometry x="380" y="920" width="170" height="30" as="geometry" />
        </mxCell>
        <mxCell id="8sraYeCV05nGxwhAqenC-55" value="" style="edgeStyle=orthogonalEdgeStyle;rounded=0;orthogonalLoop=1;jettySize=auto;html=1;" edge="1" parent="1" source="8sraYeCV05nGxwhAqenC-52" target="8sraYeCV05nGxwhAqenC-54">
          <mxGeometry relative="1" as="geometry" />
        </mxCell>
        <mxCell id="8sraYeCV05nGxwhAqenC-57" value="" style="edgeStyle=orthogonalEdgeStyle;rounded=0;orthogonalLoop=1;jettySize=auto;html=1;" edge="1" parent="1" source="8sraYeCV05nGxwhAqenC-52" target="8sraYeCV05nGxwhAqenC-56">
          <mxGeometry relative="1" as="geometry" />
        </mxCell>
        <mxCell id="8sraYeCV05nGxwhAqenC-52" value="管理员委派任务" style="rounded=0;whiteSpace=wrap;html=1;" vertex="1" parent="1">
          <mxGeometry x="380" y="1030" width="170" height="30" as="geometry" />
        </mxCell>
        <mxCell id="8sraYeCV05nGxwhAqenC-61" value="" style="edgeStyle=orthogonalEdgeStyle;rounded=0;orthogonalLoop=1;jettySize=auto;html=1;" edge="1" parent="1" source="8sraYeCV05nGxwhAqenC-54" target="8sraYeCV05nGxwhAqenC-60">
          <mxGeometry relative="1" as="geometry" />
        </mxCell>
        <mxCell id="8sraYeCV05nGxwhAqenC-54" value="维修师傅处理任务" style="rounded=0;whiteSpace=wrap;html=1;" vertex="1" parent="1">
          <mxGeometry x="380" y="1140" width="170" height="30" as="geometry" />
        </mxCell>
        <mxCell id="8sraYeCV05nGxwhAqenC-56" value="报修人任务状态更新为已委派" style="rounded=0;whiteSpace=wrap;html=1;" vertex="1" parent="1">
          <mxGeometry x="630" y="1030" width="170" height="30" as="geometry" />
        </mxCell>
        <mxCell id="8sraYeCV05nGxwhAqenC-65" value="" style="edgeStyle=orthogonalEdgeStyle;rounded=0;orthogonalLoop=1;jettySize=auto;html=1;" edge="1" parent="1" source="8sraYeCV05nGxwhAqenC-60" target="8sraYeCV05nGxwhAqenC-64">
          <mxGeometry relative="1" as="geometry" />
        </mxCell>
        <mxCell id="8sraYeCV05nGxwhAqenC-60" value="更新进度" style="rounded=0;whiteSpace=wrap;html=1;" vertex="1" parent="1">
          <mxGeometry x="630" y="1140" width="170" height="30" as="geometry" />
        </mxCell>
        <mxCell id="8sraYeCV05nGxwhAqenC-71" value="" style="edgeStyle=orthogonalEdgeStyle;rounded=0;orthogonalLoop=1;jettySize=auto;html=1;" edge="1" parent="1" source="8sraYeCV05nGxwhAqenC-64" target="8sraYeCV05nGxwhAqenC-70">
          <mxGeometry relative="1" as="geometry" />
        </mxCell>
        <mxCell id="8sraYeCV05nGxwhAqenC-64" value="完成任务" style="rounded=0;whiteSpace=wrap;html=1;" vertex="1" parent="1">
          <mxGeometry x="880" y="1140" width="170" height="30" as="geometry" />
        </mxCell>
        <mxCell id="8sraYeCV05nGxwhAqenC-70" value="报修人可选择反馈" style="rounded=0;whiteSpace=wrap;html=1;" vertex="1" parent="1">
          <mxGeometry x="880" y="920" width="170" height="30" as="geometry" />
        </mxCell>
      </root>
    </mxGraphModel>
  </diagram>
</mxfile>
